<?xml version="1.0" encoding="utf-8"?>
<!-- Generator: Adobe Illustrator 23.1.1, SVG Export Plug-In . SVG Version: 6.00 Build 0)  -->
<svg version="1.1" id="图层_1" xmlns="http://www.w3.org/2000/svg" xmlns:xlink="http://www.w3.org/1999/xlink" x="0px" y="0px"
	 viewBox="0 0 1280 1280" style="enable-background:new 0 0 1280 1280;" xml:space="preserve">
<style type="text/css">
	.st0{fill:#E10E13;}
	.st1{fill:#231815;}
</style>
<g>
	<path class="st0" d="M640.01,1041.48c-220.55,0-399.98-179.43-399.98-399.98c0-31.19,3.61-62.26,10.73-92.37
		c6.5-27.49,34.1-44.52,61.56-38.01c27.5,6.5,44.52,34.06,38.01,61.56c-5.3,22.4-7.98,45.55-7.98,68.82
		c0,164.12,133.53,297.66,297.66,297.66c164.14,0,297.67-133.54,297.67-297.66c0-164.13-133.54-297.67-297.67-297.67
		c-28.26,0-51.16-22.9-51.16-51.16s22.9-51.16,51.16-51.16c220.56,0,399.99,179.44,399.99,399.99
		C1040,862.05,860.56,1041.48,640.01,1041.48z"/>
</g>
<path class="st0" d="M852.33,702.8c0,92.41-74.9,167.33-167.32,167.33c-92.41,0-167.33-74.93-167.33-167.33
	c0-92.41,74.92-167.33,167.33-167.33C777.44,535.47,852.33,610.39,852.33,702.8z"/>
<path class="st1" d="M569.5,290.05c0,28.27-22.92,51.19-51.18,51.19c-28.27,0-51.19-22.92-51.19-51.19
	c0-28.27,22.92-51.19,51.19-51.19C546.58,238.87,569.5,261.78,569.5,290.05z"/>
<path class="st1" d="M467.12,347.8c0,28.27-22.91,51.17-51.19,51.17c-28.26,0-51.18-22.91-51.18-51.17
	c0-28.27,22.91-51.19,51.18-51.19C444.21,296.61,467.12,319.53,467.12,347.8z"/>
<path class="st1" d="M389.63,437.04c0,28.26-22.92,51.19-51.19,51.19c-28.27,0-51.19-22.93-51.19-51.19
	c0-28.27,22.92-51.19,51.19-51.19C366.71,385.85,389.63,408.77,389.63,437.04z"/>
</svg>
